<mxfile host="app.diagrams.net" modified="2023-07-31T13:32:03.642Z" agent="Mozilla/5.0 (Windows NT 10.0; Win64; x64) AppleWebKit/537.36 (KHTML, like Gecko) Chrome/115.0.0.0 Safari/537.36" version="21.6.5" etag="wNaspCb6sn_wD973A258" type="gitlab">
  <diagram name="Page-1" id="ORN6e6vsE7L94IjtK2jf">
    <mxGraphModel>
      <root>
        <mxCell id="0" />
        <mxCell id="1" parent="0" />
      </root>
    </mxGraphModel>
  </diagram>
</mxfile>
